<?xml version="1.0" encoding="UTF-8" standalone="no"?>
<svg
   xmlns:dc="http://purl.org/dc/elements/1.1/"
   xmlns:cc="http://creativecommons.org/ns#"
   xmlns:rdf="http://www.w3.org/1999/02/22-rdf-syntax-ns#"
   xmlns:svg="http://www.w3.org/2000/svg"
   xmlns="http://www.w3.org/2000/svg"
   viewBox="0 0 1000 666.66669"
   height="666.66669"
   width="1000"
   xml:space="preserve"
   id="svg437"
   version="1.1"><metadata
     id="metadata443"><rdf:RDF><cc:Work
         rdf:about=""><dc:format>image/svg+xml</dc:format><dc:type
           rdf:resource="http://purl.org/dc/dcmitype/StillImage" /><dc:title></dc:title></cc:Work></rdf:RDF></metadata><defs
     id="defs441" /><g
     transform="matrix(1.3333333,0,0,-1.3333333,0,666.66667)"
     id="g445"><g
       transform="scale(0.1)"
       id="g447"><path
         id="path451"
         style="fill:#f7b553;fill-opacity:1;fill-rule:nonzero;stroke:none"
         d="m 6527.7,1225.01 c 0,-407.85 -330.62,-738.479 -738.47,-738.479 -407.85,0 -738.48,330.629 -738.48,738.479 0,407.85 330.63,738.48 738.48,738.48 407.85,0 738.47,-330.63 738.47,-738.48" /><path
         id="path453"
         style="fill:#f9c368;fill-opacity:1;fill-rule:nonzero;stroke:none"
         d="m 5800.84,656.191 c -368.64,0 -667.49,270.27 -667.49,603.649 0,223.44 134.25,418.53 333.78,522.9 10.76,-25.07 27.52,-44.97 53.17,-52.76 8.85,-2.69 17.09,-3.89 24.8,-3.89 34.13,0 57.97,23.64 78.89,47.28 20.91,23.64 38.89,47.28 61.29,47.28 5.74,0 11.76,-1.55 18.21,-5.04 62.42,-33.91 25.66,-172.6 149.58,-178.5 1.88,-0.09 3.72,-0.13 5.52,-0.13 55.91,0 77.09,42.19 90.16,84.39 13.08,42.19 18.06,84.39 41.55,84.39 2.3,0 4.78,-0.41 7.46,-1.26 58.09,-18.41 52.72,-140.31 121.44,-140.31 0.29,0 0.57,0 0.87,0.01 40.88,0.61 59.63,48.51 75.28,82.61 21.68,-14.39 42.34,-29.92 61.93,-46.52 14.42,-70.14 30.1,-162.14 83.35,-167.65 1.57,-0.17 3.11,-0.25 4.62,-0.25 15.43,0 27.91,8.35 37.97,22.62 54.2,-87.26 85.11,-187.96 85.11,-295.17 0,-333.379 -298.85,-603.649 -667.49,-603.649" /><path
         id="path455"
         style="fill:#ee2640;fill-opacity:1;fill-rule:nonzero;stroke:none"
         d="m 5905.35,600.121 c 0,-47.031 -38.13,-85.172 -85.16,-85.172 -47.04,0 -85.17,38.141 -85.17,85.172 0,47.027 38.13,85.16 85.17,85.16 47.03,0 85.16,-38.133 85.16,-85.16" /><path
         id="path457"
         style="fill:#ffffff;fill-opacity:1;fill-rule:nonzero;stroke:none"
         d="m 5829.05,636.488 c 0,-16.168 -13.1,-29.269 -29.26,-29.269 -16.18,0 -29.28,13.101 -29.28,29.269 0,16.172 13.1,29.274 29.28,29.274 16.16,0 29.26,-13.102 29.26,-29.274" /><path
         id="path459"
         style="fill:#b16b1e;fill-opacity:1;fill-rule:nonzero;stroke:none"
         d="m 6409.46,1625.61 c -131.55,203.26 -360.1,337.88 -620.23,337.88 -122.63,0 -238.17,-30.07 -339.95,-82.96 1.65,-60.02 15.46,-133.67 71.02,-150.55 48.01,-14.58 78.05,14.41 103.69,43.39 26.27,29.7 47.91,59.39 79.5,42.24 62.42,-33.91 25.66,-172.6 149.58,-178.5 60.05,-2.85 82.19,40.7 95.68,84.26 14.36,46.33 18.95,92.66 49.01,83.13 58.33,-18.48 52.67,-141.34 122.31,-140.3 69.65,1.03 75.08,139.37 110.3,112.8 35.22,-26.56 29.07,-235.96 110.26,-244.36 36.32,-3.76 57.19,36.64 68.83,92.97" /><path
         id="path461"
         style="fill:#ee2640;fill-opacity:1;fill-rule:nonzero;stroke:none"
         d="m 5891.79,2021.13 h -34.91 v 112.56 c 0,34.27 -27.89,62.16 -62.16,62.16 -34.27,0 -62.16,-27.89 -62.16,-62.16 v -112.56 h -34.9 v 112.56 c 0,53.52 43.54,97.07 97.06,97.07 53.52,0 97.07,-43.55 97.07,-97.07 v -112.56" /><path
         id="path463"
         style="fill:#f7ab35;fill-opacity:1;fill-rule:nonzero;stroke:none"
         d="m 5849.38,2084.28 h -114.82 c -33.49,0 -60.63,-27.15 -60.63,-60.64 v -142.52 h 236.09 v 142.52 c 0,33.49 -27.15,60.64 -60.64,60.64" /><path
         id="path465"
         style="fill:#f57a96;fill-opacity:1;fill-rule:nonzero;stroke:none"
         d="m 5400.34,1320.29 c 0,-71.32 -57.82,-129.14 -129.14,-129.14 -71.33,0 -129.15,57.82 -129.15,129.14 0,71.33 57.82,129.15 129.15,129.15 71.32,0 129.14,-57.82 129.14,-129.15" /><path
         id="path467"
         style="fill:#f57a96;fill-opacity:1;fill-rule:nonzero;stroke:none"
         d="m 6436.41,1320.29 c 0,-71.32 -57.83,-129.14 -129.15,-129.14 -71.32,0 -129.14,57.82 -129.14,129.14 0,71.33 57.82,129.15 129.14,129.15 71.32,0 129.15,-57.82 129.15,-129.15" /><path
         id="path469"
         style="fill:#353538;fill-opacity:1;fill-rule:nonzero;stroke:none"
         d="m 5513.53,1514.26 c 0,-27.25 -22.09,-49.34 -49.34,-49.34 -27.25,0 -49.34,22.09 -49.34,49.34 0,27.24 22.09,49.33 49.34,49.33 27.25,0 49.34,-22.09 49.34,-49.33" /><path
         id="path471"
         style="fill:#353538;fill-opacity:1;fill-rule:nonzero;stroke:none"
         d="m 6192.63,1514.26 c 0,-27.25 -22.09,-49.34 -49.34,-49.34 -27.25,0 -49.33,22.09 -49.33,49.34 0,27.24 22.08,49.33 49.33,49.33 27.25,0 49.34,-22.09 49.34,-49.33" /><path
         id="path473"
         style="fill:#f8cc4b;fill-opacity:1;fill-rule:nonzero;stroke:none"
         d="m 5781.49,1902.18 h -87.07 v 120.96 c 0,18.68 15.14,33.81 33.81,33.81 h 19.45 c 18.68,0 33.81,-15.13 33.81,-33.81 v -120.96" /><path
         id="path475"
         style="fill:#353538;fill-opacity:1;fill-rule:nonzero;stroke:none"
         d="m 5745.78,1492.46 c 38.03,15.23 54.85,-28.24 76.34,-18.43 21.48,9.83 38.17,35.73 63.04,23.13 42.13,-21.34 40.53,-108.44 -67.15,-111.59 -90.68,-2.66 -120.43,87.58 -72.23,106.89" /><path
         id="path477"
         style="fill:#ee2640;fill-opacity:1;fill-rule:nonzero;stroke:none"
         d="m 5905.35,836.09 c 0,-47.039 -38.13,-85.16 -85.16,-85.16 -47.04,0 -85.17,38.121 -85.17,85.16 0,47.031 38.13,85.16 85.17,85.16 47.03,0 85.16,-38.129 85.16,-85.16" /><path
         id="path479"
         style="fill:#ffffff;fill-opacity:1;fill-rule:nonzero;stroke:none"
         d="m 5829.05,872.461 c 0,-16.16 -13.1,-29.281 -29.26,-29.281 -16.18,0 -29.28,13.121 -29.28,29.281 0,16.168 13.1,29.281 29.28,29.281 16.16,0 29.26,-13.113 29.26,-29.281" /><path
         id="path481"
         style="fill:#ffffff;fill-opacity:1;fill-rule:nonzero;stroke:none"
         d="m 5405.11,1783.86 c 4.85,2.48 9.76,4.82 14.74,7.02 8.04,3.56 11.67,12.96 8.12,21 -3.56,8.04 -12.96,11.67 -21,8.12 -5.54,-2.45 -10.97,-5.05 -16.32,-7.77 -7.83,-3.99 -10.94,-13.58 -6.95,-21.41 3.99,-7.83 13.57,-10.95 21.41,-6.96" /><path
         id="path483"
         style="fill:#ffffff;fill-opacity:1;fill-rule:nonzero;stroke:none"
         d="m 5184.43,1544.91 0.15,0.29 c 1.73,3.44 18.74,36.77 48.5,78.72 29.73,41.97 72.27,92.48 124.36,130.46 7.1,5.18 8.66,15.14 3.47,22.24 -5.18,7.1 -15.13,8.66 -22.24,3.47 -58,-42.36 -103.36,-97.43 -134.52,-141.95 -31.14,-44.54 -48,-78.61 -48.25,-79.12 -3.9,-7.88 -0.67,-17.43 7.21,-21.33 7.88,-3.89 17.43,-0.66 21.32,7.22" /><path
         id="path485"
         style="fill:#faf9fc;fill-opacity:1;fill-rule:nonzero;stroke:none"
         d="m 2500.1,2049.22 c 0,-52.36 -42.44,-94.81 -94.8,-94.81 -52.36,0 -94.8,42.45 -94.8,94.81 0,52.35 42.44,94.79 94.8,94.79 52.36,0 94.8,-42.44 94.8,-94.79" /><path
         id="path487"
         style="fill:#ffffff;fill-opacity:1;fill-rule:nonzero;stroke:none"
         d="m 2459.47,2051.15 c 0,-32.06 -25.98,-58.04 -58.04,-58.04 -32.05,0 -58.04,25.98 -58.04,58.04 0,32.05 25.99,58.04 58.04,58.04 32.06,0 58.04,-25.99 58.04,-58.04" /><path
         id="path489"
         style="fill:#ee2640;fill-opacity:1;fill-rule:nonzero;stroke:none"
         d="m 1966.11,1865.41 c 0,0 123.83,243.78 421.78,178 l -119.96,-371.48 -301.82,193.48" /><path
         id="path491"
         style="fill:#faf9fc;fill-opacity:1;fill-rule:nonzero;stroke:none"
         d="m 2424.05,1225.01 c 0,-407.85 -330.63,-738.479 -738.48,-738.479 -407.85,0 -738.476,330.629 -738.476,738.479 0,407.85 330.626,738.48 738.476,738.48 407.85,0 738.48,-330.63 738.48,-738.48" /><path
         id="path493"
         style="fill:#ffffff;fill-opacity:1;fill-rule:nonzero;stroke:none"
         d="m 2364.67,1259.84 c 0,-333.379 -298.84,-603.649 -667.49,-603.649 -368.64,0 -667.49,270.27 -667.49,603.649 0,333.38 298.85,603.64 667.49,603.64 368.65,0 667.49,-270.26 667.49,-603.64" /><path
         id="path495"
         style="fill:#ee2640;fill-opacity:1;fill-rule:nonzero;stroke:none"
         d="M 2421.63,1167.89 C 1857.92,885.109 1245.17,1040.61 951.188,1147.34 990.004,776.012 1303.96,486.531 1685.57,486.531 c 388.61,0 706.88,300.239 736.06,681.359" /><path
         id="path497"
         style="fill:#ee2640;fill-opacity:1;fill-rule:nonzero;stroke:none"
         d="m 1788.13,2021.13 h -34.91 v 112.56 c 0,34.27 -27.88,62.16 -62.16,62.16 -34.27,0 -62.16,-27.89 -62.16,-62.16 v -112.56 h -34.91 v 112.56 c 0,53.52 43.55,97.07 97.07,97.07 53.52,0 97.07,-43.55 97.07,-97.07 v -112.56" /><path
         id="path499"
         style="fill:#f7ab35;fill-opacity:1;fill-rule:nonzero;stroke:none"
         d="M 1745.73,2084.28 H 1630.9 c -33.48,0 -60.63,-27.15 -60.63,-60.64 v -142.52 h 236.09 v 142.52 c 0,33.49 -27.14,60.64 -60.63,60.64" /><path
         id="path501"
         style="fill:#f79b96;fill-opacity:1;fill-rule:nonzero;stroke:none"
         d="m 2010.61,1327.05 c 0,-140.79 -141.63,-254.92 -316.33,-254.92 -174.71,0 -316.34,114.13 -316.34,254.92 0,140.79 141.63,254.92 316.34,254.92 174.7,0 316.33,-114.13 316.33,-254.92" /><path
         id="path503"
         style="fill:#353538;fill-opacity:1;fill-rule:nonzero;stroke:none"
         d="m 1784.24,1485.23 c 0,-25.64 -39.84,-46.43 -89,-46.43 -49.15,0 -89,20.79 -89,46.43 0,25.65 39.85,46.44 89,46.44 49.16,0 89,-20.79 89,-46.44" /><path
         id="path505"
         style="fill:#353538;fill-opacity:1;fill-rule:nonzero;stroke:none"
         d="m 1684.03,1485.23 v -88.85 c 0,-6.6 5.35,-11.94 11.94,-11.94 6.6,0 11.94,5.34 11.94,11.94 v 88.85 c 0,6.6 -5.34,11.94 -11.94,11.94 -6.59,0 -11.94,-5.34 -11.94,-11.94" /><path
         id="path507"
         style="fill:#353538;fill-opacity:1;fill-rule:nonzero;stroke:none"
         d="m 1605.19,1397.34 v -20.31 c 0.01,-28.5 23.1,-51.59 51.6,-51.6 28.5,0.01 51.6,23.1 51.6,51.6 v 20.31 c 0,6.6 -5.34,11.94 -11.93,11.94 -6.6,0 -11.94,-5.34 -11.94,-11.94 v -20.31 c -0.03,-15.3 -12.42,-27.69 -27.73,-27.72 -15.31,0.03 -27.7,12.42 -27.72,27.72 v 20.31 c 0,6.6 -5.35,11.94 -11.94,11.94 -6.59,0 -11.94,-5.34 -11.94,-11.94" /><path
         id="path509"
         style="fill:#353538;fill-opacity:1;fill-rule:nonzero;stroke:none"
         d="m 1683.55,1397.34 v -20.31 c 0.01,-28.5 23.1,-51.59 51.6,-51.6 28.5,0.01 51.59,23.1 51.6,51.6 v 20.31 c 0,6.6 -5.35,11.94 -11.94,11.94 -6.59,0 -11.94,-5.34 -11.94,-11.94 v -20.31 c -0.03,-15.31 -12.41,-27.69 -27.72,-27.72 -15.31,0.03 -27.7,12.41 -27.72,27.72 v 20.31 c 0,6.6 -5.35,11.94 -11.94,11.94 -6.6,0 -11.94,-5.34 -11.94,-11.94" /><path
         id="path511"
         style="fill:#f57a96;fill-opacity:1;fill-rule:nonzero;stroke:none"
         d="m 1296.68,1362.86 c 0,-71.33 -57.81,-129.14 -129.14,-129.14 -71.33,0 -129.14,57.81 -129.14,129.14 0,71.33 57.81,129.14 129.14,129.14 71.33,0 129.14,-57.81 129.14,-129.14" /><path
         id="path513"
         style="fill:#f57a96;fill-opacity:1;fill-rule:nonzero;stroke:none"
         d="m 2332.74,1362.86 c 0,-71.33 -57.81,-129.14 -129.14,-129.14 -71.32,0 -129.14,57.81 -129.14,129.14 0,71.33 57.82,129.14 129.14,129.14 71.33,0 129.14,-57.81 129.14,-129.14" /><path
         id="path515"
         style="fill:#353538;fill-opacity:1;fill-rule:nonzero;stroke:none"
         d="m 1409.87,1556.82 c 0,-27.25 -22.09,-49.34 -49.34,-49.34 -27.24,0 -49.33,22.09 -49.33,49.34 0,27.25 22.09,49.33 49.33,49.33 27.25,0 49.34,-22.08 49.34,-49.33" /><path
         id="path517"
         style="fill:#353538;fill-opacity:1;fill-rule:nonzero;stroke:none"
         d="m 2088.97,1556.82 c 0,-27.25 -22.09,-49.34 -49.34,-49.34 -27.25,0 -49.34,22.09 -49.34,49.34 0,27.25 22.09,49.33 49.34,49.33 27.25,0 49.34,-22.08 49.34,-49.33" /><path
         id="path519"
         style="fill:#ffffff;fill-opacity:1;fill-rule:nonzero;stroke:none"
         d="m 1723.3,1503.61 c 0,-9.21 -17.54,-16.69 -39.18,-16.69 -21.64,0 -39.18,7.48 -39.18,16.69 0,9.22 17.54,16.69 39.18,16.69 21.64,0 39.18,-7.47 39.18,-16.69" /><path
         id="path521"
         style="fill:#fabc91;fill-opacity:1;fill-rule:nonzero;stroke:none"
         d="m 2424.05,1225.01 c 0,-407.85 -330.63,-738.479 -738.48,-738.479 -407.85,0 -738.476,330.629 -738.476,738.479 0,407.85 330.626,738.48 738.476,738.48 407.85,0 738.48,-330.63 738.48,-738.48" /><path
         id="path523"
         style="fill:#fbc6a4;fill-opacity:1;fill-rule:nonzero;stroke:none"
         d="m 1697.18,656.191 c -368.64,0 -667.49,270.27 -667.49,603.649 0,333.38 298.85,603.64 667.49,603.64 368.65,0 667.49,-270.26 667.49,-603.64 0,-333.379 -298.84,-603.649 -667.49,-603.649" /><path
         id="path525"
         style="fill:#353538;fill-opacity:1;fill-rule:nonzero;stroke:none"
         d="m 1687.04,1006.39 h -6.81 c -19.49,0 -35.29,15.79 -35.29,35.28 v 270.4 h 77.39 v -270.4 c 0,-19.49 -15.8,-35.28 -35.29,-35.28" /><path
         id="path527"
         style="fill:#ee2640;fill-opacity:1;fill-rule:nonzero;stroke:none"
         d="m 1788.13,2021.13 h -34.91 v 112.56 c 0,34.27 -27.88,62.16 -62.16,62.16 -34.27,0 -62.16,-27.89 -62.16,-62.16 v -112.56 h -34.91 v 112.56 c 0,53.52 43.55,97.07 97.07,97.07 53.52,0 97.07,-43.55 97.07,-97.07 v -112.56" /><path
         id="path529"
         style="fill:#f7ab35;fill-opacity:1;fill-rule:nonzero;stroke:none"
         d="M 1745.73,2084.28 H 1630.9 c -33.48,0 -60.63,-27.15 -60.63,-60.64 v -142.52 h 236.09 v 142.52 c 0,33.49 -27.14,60.64 -60.63,60.64" /><path
         id="path531"
         style="fill:#f57a96;fill-opacity:1;fill-rule:nonzero;stroke:none"
         d="m 1296.68,1362.86 c 0,-71.33 -57.81,-129.14 -129.14,-129.14 -71.32,0 -129.14,57.81 -129.14,129.14 0,71.33 57.82,129.14 129.14,129.14 71.33,0 129.14,-57.81 129.14,-129.14" /><path
         id="path533"
         style="fill:#f57a96;fill-opacity:1;fill-rule:nonzero;stroke:none"
         d="m 2332.74,1362.86 c 0,-71.33 -57.81,-129.14 -129.14,-129.14 -71.32,0 -129.14,57.81 -129.14,129.14 0,71.33 57.82,129.14 129.14,129.14 71.33,0 129.14,-57.81 129.14,-129.14" /><path
         id="path535"
         style="fill:#353538;fill-opacity:1;fill-rule:nonzero;stroke:none"
         d="m 1409.87,1556.82 c 0,-27.25 -22.09,-49.34 -49.34,-49.34 -27.24,0 -49.33,22.09 -49.33,49.34 0,27.25 22.09,49.33 49.33,49.33 27.25,0 49.34,-22.08 49.34,-49.33" /><path
         id="path537"
         style="fill:#353538;fill-opacity:1;fill-rule:nonzero;stroke:none"
         d="m 2088.97,1556.82 c 0,-27.25 -22.09,-49.34 -49.34,-49.34 -27.25,0 -49.34,22.09 -49.34,49.34 0,27.25 22.09,49.33 49.34,49.33 27.25,0 49.34,-22.08 49.34,-49.33" /><path
         id="path539"
         style="fill:#f8cc4b;fill-opacity:1;fill-rule:nonzero;stroke:none"
         d="m 1677.83,1902.18 h -87.06 v 120.96 c 0,18.68 15.13,33.81 33.81,33.81 h 19.44 c 18.68,0 33.81,-15.13 33.81,-33.81 v -120.96" /><path
         id="path541"
         style="fill:#faf9fc;fill-opacity:1;fill-rule:nonzero;stroke:none"
         d="m 1161.25,1466.86 c 0,0 -23.21,-359.87 270.87,-356 294.08,3.87 305.69,297.95 178,336.65 -127.7,38.69 -232.18,-154.79 -448.87,19.35" /><path
         id="path543"
         style="fill:#ffffff;fill-opacity:1;fill-rule:nonzero;stroke:none"
         d="m 1180.6,1431.06 c 0,0 66.75,-98.67 214.76,-72.55 148.01,26.12 174.13,107.38 235.07,29.02 51.4,-66.07 -95.31,-250.99 -301.82,-188.64 -153.82,46.43 -148.01,232.17 -148.01,232.17" /><path
         id="path545"
         style="fill:#faf9fc;fill-opacity:1;fill-rule:nonzero;stroke:none"
         d="m 2205.57,1466.86 c 0,0 23.22,-359.87 -270.86,-356 -294.08,3.87 -305.7,297.95 -178,336.65 127.69,38.69 232.17,-154.79 448.86,19.35" /><path
         id="path547"
         style="fill:#ffffff;fill-opacity:1;fill-rule:nonzero;stroke:none"
         d="m 2186.33,1431.06 c 0,0 -66.75,-98.67 -214.76,-72.55 -148.01,26.12 -174.13,107.38 -235.07,29.02 -51.4,-66.07 95.31,-250.99 301.82,-188.64 153.81,46.43 148.01,232.17 148.01,232.17" /><path
         id="path549"
         style="fill:#f7938a;fill-opacity:1;fill-rule:nonzero;stroke:none"
         d="m 1850.02,1462.99 c 0,-85.49 -69.29,-154.79 -154.78,-154.79 -85.48,0 -154.78,69.3 -154.78,154.79 0,85.48 69.3,154.77 154.78,154.77 85.49,0 154.78,-69.29 154.78,-154.77" /><path
         id="path551"
         style="fill:#ffffff;fill-opacity:1;fill-rule:nonzero;stroke:none"
         d="m 1733.94,1548.12 c 0,-21.38 -28.58,-38.71 -63.85,-38.71 -35.26,0 -63.84,17.33 -63.84,38.71 0,21.36 28.58,38.69 63.84,38.69 35.27,0 63.85,-17.33 63.85,-38.69" /><path
         id="path553"
         style="fill:#faf9fc;fill-opacity:1;fill-rule:nonzero;stroke:none"
         d="m 1637.2,909.648 c -722.762,69.43 -544.51,645.982 -454.23,856.212 -145.04,-134.84 -235.876,-327.2 -235.876,-540.85 0,-407.85 330.626,-738.479 738.476,-738.479 407.85,0 738.48,330.629 738.48,738.479 0,180.4 -64.77,345.62 -172.22,473.88 46.86,-259.03 81.6,-856.128 -614.63,-789.242" /><path
         id="path555"
         style="fill:#ffffff;fill-opacity:1;fill-rule:nonzero;stroke:none"
         d="m 1055.81,1277.25 c 0,0 85.18,-435.379 650.08,-417.898 563.01,17.41 592.03,458.528 592.03,458.528 0,0 168.33,-760.36 -606.54,-760.36 -774.872,0 -635.57,719.73 -635.57,719.73" /><path
         id="path557"
         style="fill:#faf9fc;fill-opacity:1;fill-rule:nonzero;stroke:none"
         d="m 2348.01,1789.07 -304.28,208.28 c -30.06,20.87 -71.35,13.42 -92.22,-16.65 l -3.86,-5.56 c -20.87,-30.06 -13.41,-71.35 16.65,-92.22 l 304.28,-208.29 c 30.06,-20.87 71.35,-13.41 92.22,16.66 l 3.86,5.56 c 20.87,30.06 13.41,71.35 -16.65,92.22" /><path
         id="path559"
         style="fill:#ffffff;fill-opacity:1;fill-rule:nonzero;stroke:none"
         d="m 2278.98,1819.11 -233.33,159.72 c -23.05,16 -54.71,10.29 -70.71,-12.77 l -2.96,-4.26 c -16.01,-23.06 -10.29,-54.72 12.77,-70.72 l 233.32,-159.72 c 23.05,-16 54.72,-10.29 70.72,12.77 l 2.96,4.27 c 16,23.06 10.28,54.72 -12.77,70.71" /><path
         id="path561"
         style="fill:#ffffff;fill-opacity:1;fill-rule:nonzero;stroke:none"
         d="m 1484.37,1873.05 c 5.36,1 10.73,1.86 16.11,2.56 8.72,1.14 14.86,9.13 13.73,17.85 -1.14,8.71 -9.13,14.86 -17.85,13.72 -5.99,-0.78 -11.95,-1.74 -17.85,-2.84 -8.64,-1.62 -14.33,-9.94 -12.72,-18.58 1.62,-8.64 9.94,-14.33 18.58,-12.71" /><path
         id="path563"
         style="fill:#ffffff;fill-opacity:1;fill-rule:nonzero;stroke:none"
         d="m 1205.26,1706.05 0.22,0.24 c 2.63,2.82 28.36,29.99 68.74,61.84 40.35,31.87 95.42,68.34 156.11,90.08 8.27,2.97 12.57,12.08 9.6,20.36 -2.96,8.27 -12.08,12.57 -20.35,9.61 -67.6,-24.29 -126.65,-64.33 -169.11,-98.25 -42.43,-33.95 -68.21,-61.87 -68.6,-62.29 -5.97,-6.46 -5.56,-16.53 0.9,-22.49 6.46,-5.96 16.53,-5.56 22.49,0.9" /><path
         id="path565"
         style="fill:#393d5b;fill-opacity:1;fill-rule:nonzero;stroke:none"
         d="m 6170.37,4067.32 c 0,0 85.42,223.41 147.84,203.7 62.42,-19.72 252.98,-187.27 233.27,-229.98 -19.71,-42.71 -174.13,-167.56 -174.13,-167.56" /><path
         id="path567"
         style="fill:#ee273b;fill-opacity:1;fill-rule:nonzero;stroke:none"
         d="m 6170.37,4067.32 206.98,-193.84 c 0,0 55.31,44.72 103.95,89.78 -84.03,108.14 -194.99,179.99 -259.1,215.65 -29.83,-54.09 -51.83,-111.59 -51.83,-111.59" /><path
         id="path569"
         style="fill:#393d5b;fill-opacity:1;fill-rule:nonzero;stroke:none"
         d="m 6495.63,3771.63 c -44.55,-94.03 -200.73,54.74 -321.98,154.41 -121.24,99.68 -200.74,187.11 -139.96,240.67 51.26,45.17 156.71,-22.71 277.95,-122.39 121.24,-99.67 213.56,-210.27 183.99,-272.69" /><path
         id="path571"
         style="fill:#ffffff;fill-opacity:1;fill-rule:nonzero;stroke:none"
         d="m 6428.62,3436.43 c 0,-333.38 -298.85,-603.64 -667.49,-603.64 -368.65,0 -667.49,270.26 -667.49,603.64 0,333.38 298.84,603.65 667.49,603.65 368.64,0 667.49,-270.27 667.49,-603.65" /><path
         id="path573"
         style="fill:#f5fafa;fill-opacity:1;fill-rule:nonzero;stroke:none"
         d="m 6502.51,3401.61 c 0,-407.85 -330.63,-738.48 -738.48,-738.48 -407.85,0 -738.47,330.63 -738.47,738.48 0,407.84 330.62,738.48 738.47,738.48 407.85,0 738.48,-330.64 738.48,-738.48" /><path
         id="path575"
         style="fill:#ffffff;fill-opacity:1;fill-rule:nonzero;stroke:none"
         d="m 6437.32,3410.31 c 0,-333.38 -298.84,-603.64 -667.49,-603.64 -368.64,0 -667.49,270.26 -667.49,603.64 0,333.39 298.85,603.65 667.49,603.65 368.65,0 667.49,-270.26 667.49,-603.65" /><path
         id="path577"
         style="fill:#ee273b;fill-opacity:1;fill-rule:nonzero;stroke:none"
         d="m 5863.68,4197.73 h -34.9 v 112.56 c 0,34.27 -27.88,62.16 -62.16,62.16 -34.28,0 -62.16,-27.89 -62.16,-62.16 v -112.56 h -34.91 v 112.56 c 0,53.52 43.54,97.07 97.07,97.07 53.53,0 97.06,-43.55 97.06,-97.07 v -112.56" /><path
         id="path579"
         style="fill:#f7ab35;fill-opacity:1;fill-rule:nonzero;stroke:none"
         d="m 5821.29,4260.88 h -114.83 c -33.49,0 -60.63,-27.15 -60.63,-60.63 v -142.52 h 236.09 v 142.52 c 0,33.48 -27.15,60.63 -60.63,60.63" /><path
         id="path581"
         style="fill:#f57a96;fill-opacity:1;fill-rule:nonzero;stroke:none"
         d="m 5460.03,3482.87 c 0,-71.33 -57.81,-129.15 -129.14,-129.15 -71.33,0 -129.14,57.82 -129.14,129.15 0,71.32 57.81,129.14 129.14,129.14 71.33,0 129.14,-57.82 129.14,-129.14" /><path
         id="path583"
         style="fill:#f57a96;fill-opacity:1;fill-rule:nonzero;stroke:none"
         d="m 6299.72,3490.61 c 0,-71.33 -57.83,-129.15 -129.15,-129.15 -71.32,0 -129.14,57.82 -129.14,129.15 0,71.32 57.82,129.14 129.14,129.14 71.32,0 129.15,-57.82 129.15,-129.14" /><path
         id="path585"
         style="fill:#353538;fill-opacity:1;fill-rule:nonzero;stroke:none"
         d="m 5506.46,3708.28 c 0,-27.25 -22.08,-49.34 -49.33,-49.34 -27.25,0 -49.34,22.09 -49.34,49.34 0,27.24 22.09,49.33 49.34,49.33 27.25,0 49.33,-22.09 49.33,-49.33" /><path
         id="path587"
         style="fill:#353538;fill-opacity:1;fill-rule:nonzero;stroke:none"
         d="m 6093.66,3708.28 c 0,-27.25 -22.09,-49.34 -49.33,-49.34 -27.25,0 -49.34,22.09 -49.34,49.34 0,27.24 22.09,49.33 49.34,49.33 27.24,0 49.33,-22.09 49.33,-49.33" /><path
         id="path589"
         style="fill:#353538;fill-opacity:1;fill-rule:nonzero;stroke:none"
         d="m 5803.37,3405.21 c 1.04,0.18 31.26,4.28 65.15,21.39 16.94,8.59 34.86,20.5 50.18,37.2 15.32,16.65 27.93,38.26 33.63,65.05 1.84,8.59 -3.64,17.05 -12.23,18.89 -8.6,1.84 -17.06,-3.64 -18.9,-12.23 -4.5,-20.91 -13.94,-37.05 -25.96,-50.19 -17.96,-19.66 -42.17,-32.14 -62,-39.37 -9.9,-3.62 -18.64,-5.96 -24.82,-7.37 -3.09,-0.7 -5.53,-1.17 -7.15,-1.46 l -1.8,-0.31 -0.4,-0.06 -0.06,-0.01 0.82,-5.76 -0.79,5.77 -0.03,-0.01 0.82,-5.76 -0.79,5.77 c -8.71,-1.2 -14.8,-9.23 -13.61,-17.94 1.2,-8.71 9.23,-14.8 17.94,-13.6" /><path
         id="path591"
         style="fill:#ee273b;fill-opacity:1;fill-rule:nonzero;stroke:none"
         d="m 5729.98,3496.55 -190.69,165.36 c -11.63,10.09 -2.81,29.12 12.41,26.74 l 273.84,-42.75 c 0,0 20.52,-26.16 21.5,-55.02 1.74,-50.71 -26.68,-114.61 -117.06,-94.33" /><path
         id="path593"
         style="fill:#f0374f;fill-opacity:1;fill-rule:nonzero;stroke:none"
         d="m 5815.1,3563.34 c -37.83,0 -267.63,110.46 -264.86,117.84 0,0 262.45,-35.95 272.8,-49.34 16.44,-21.28 15.48,-56.1 -3.87,-67.71 -0.88,-0.54 -2.26,-0.79 -4.07,-0.79" /><path
         id="path595"
         style="fill:#f8cc4b;fill-opacity:1;fill-rule:nonzero;stroke:none"
         d="m 5762.58,4083.13 h -87.06 v 120.97 c 0,18.67 15.13,33.81 33.81,33.81 h 19.44 c 18.67,0 33.81,-15.14 33.81,-33.81 v -120.97" /><path
         id="path597"
         style="fill:#393d5b;fill-opacity:1;fill-rule:nonzero;stroke:none"
         d="m 5863.51,2970.37 c 0,-41.02 -33.26,-74.27 -74.28,-74.27 -41.02,0 -74.28,33.25 -74.28,74.27 0,41.02 33.26,74.27 74.28,74.27 41.02,0 74.28,-33.25 74.28,-74.27" /><path
         id="path599"
         style="fill:#ffffff;fill-opacity:1;fill-rule:nonzero;stroke:none"
         d="m 5796.96,3002.09 c 0,-14.1 -11.42,-25.53 -25.52,-25.53 -14.11,0 -25.54,11.43 -25.54,25.53 0,14.1 11.43,25.53 25.54,25.53 14.1,0 25.52,-11.43 25.52,-25.53" /><path
         id="path601"
         style="fill:#393d5b;fill-opacity:1;fill-rule:nonzero;stroke:none"
         d="m 5863.51,2764.57 c 0,-41.02 -33.26,-74.28 -74.28,-74.28 -41.02,0 -74.28,33.26 -74.28,74.28 0,41.02 33.26,74.27 74.28,74.27 41.02,0 74.28,-33.25 74.28,-74.27" /><path
         id="path603"
         style="fill:#ffffff;fill-opacity:1;fill-rule:nonzero;stroke:none"
         d="m 5796.96,2796.29 c 0,-14.1 -11.42,-25.53 -25.52,-25.53 -14.11,0 -25.54,11.43 -25.54,25.53 0,14.1 11.43,25.53 25.54,25.53 14.1,0 25.52,-11.43 25.52,-25.53" /><path
         id="path605"
         style="fill:#ffffff;fill-opacity:1;fill-rule:nonzero;stroke:none"
         d="m 5485.72,4010.53 c 5.19,1.61 10.43,3.08 15.7,4.41 8.53,2.14 13.71,10.78 11.57,19.31 -2.14,8.53 -10.79,13.71 -19.31,11.57 -5.86,-1.48 -11.67,-3.11 -17.41,-4.89 -8.39,-2.61 -13.08,-11.53 -10.48,-19.93 2.61,-8.39 11.53,-13.08 19.93,-10.47" /><path
         id="path607"
         style="fill:#ffffff;fill-opacity:1;fill-rule:nonzero;stroke:none"
         d="m 5227.78,3812.38 0.19,0.26 c 2.29,3.1 24.7,33.07 61.13,69.38 36.4,36.32 86.88,78.91 144.65,107.52 7.88,3.9 11.1,13.46 7.19,21.33 -3.9,7.88 -13.46,11.09 -21.33,7.19 -64.34,-31.94 -118.37,-78.53 -156.62,-117.14 -38.22,-38.62 -60.61,-69.34 -60.95,-69.8 -5.17,-7.11 -3.6,-17.07 3.5,-22.24 7.11,-5.18 17.07,-3.61 22.24,3.5" /><path
         id="path609"
         style="fill:#ffffff;fill-opacity:1;fill-rule:nonzero;stroke:none"
         d="m 6458.38,4093.37 c 1.75,-3.01 3.41,-6.05 4.97,-9.12 2.99,-5.88 10.17,-8.22 16.05,-5.23 5.88,2.98 8.22,10.17 5.24,16.05 -1.78,3.5 -3.66,6.92 -5.6,10.28 -3.31,5.7 -10.61,7.65 -16.32,4.34 -5.7,-3.31 -7.64,-10.61 -4.34,-16.32" /><path
         id="path611"
         style="fill:#ffffff;fill-opacity:1;fill-rule:nonzero;stroke:none"
         d="m 6298.2,4225.76 0.18,-0.08 c 2.22,-0.96 24.12,-10.66 51.96,-28.21 27.86,-17.52 61.61,-42.94 87.62,-74.8 4.17,-5.1 11.7,-5.86 16.8,-1.69 5.11,4.17 5.86,11.7 1.69,16.8 -29.39,35.93 -66.44,63.17 -96.19,81.65 -29.76,18.46 -52.27,28.11 -52.66,28.28 -6.06,2.6 -13.08,-0.21 -15.67,-6.27 -2.6,-6.06 0.21,-13.08 6.27,-15.68" /><path
         id="path613"
         style="fill:#f7ab35;fill-opacity:1;fill-rule:nonzero;stroke:none"
         d="m 3574.52,4010.91 c 0,0 -307.95,-69.32 -330.81,61.51 -22.86,130.84 124.21,404.02 -4.47,439.38 -128.67,35.37 -11.66,-275.3 -101.21,-280.1 -89.54,-4.8 -54.84,234.77 -125.95,378.87 -71.1,144.1 -155.07,29.91 -141.33,-127.83 13.73,-157.74 299.25,-307.14 213.65,-385.68 -41.13,-37.74 -68.47,20.34 -99.17,78.42 -33.19,62.77 -70.31,125.56 -133.05,67.31 -120.77,-112.12 29.02,-306 461.04,-383.22 l 275.03,-6.4 -13.73,157.74" /><path
         id="path615"
         style="fill:#f7ab35;fill-opacity:1;fill-rule:nonzero;stroke:none"
         d="m 3969.05,4010.91 c 0,0 307.95,-69.32 330.81,61.51 22.86,130.84 -124.21,404.02 4.47,439.38 128.68,35.37 11.67,-275.3 101.21,-280.1 89.55,-4.8 54.83,234.77 125.94,378.87 71.12,144.1 155.07,29.91 141.34,-127.83 -13.73,-157.74 -299.25,-307.14 -213.65,-385.68 41.13,-37.74 68.47,20.34 99.17,78.42 33.19,62.77 70.31,125.56 133.05,67.31 120.77,-112.12 -29.02,-306 -461.04,-383.22 l -275.03,-6.4 13.73,157.74" /><path
         id="path617"
         style="fill:#cd7444;fill-opacity:1;fill-rule:nonzero;stroke:none"
         d="m 4505.83,3401.61 c 0,-407.85 -330.62,-738.48 -738.48,-738.48 -407.84,0 -738.47,330.63 -738.47,738.48 0,407.84 330.63,738.48 738.47,738.48 407.86,0 738.48,-330.64 738.48,-738.48" /><path
         id="path619"
         style="fill:#f7ab35;fill-opacity:1;fill-rule:nonzero;stroke:none"
         d="m 3762.71,3186.85 c -217.98,0 -394.69,-176.71 -394.69,-394.69 0,-3.95 0.19,-7.86 0.3,-11.79 115.1,-74.08 251.99,-117.24 399.03,-117.24 143.04,0 276.5,40.79 389.6,111.19 0.27,5.92 0.45,11.86 0.45,17.84 0,217.98 -176.71,394.69 -394.69,394.69" /><path
         id="path621"
         style="fill:#d48a4e;fill-opacity:1;fill-rule:nonzero;stroke:none"
         d="m 4130.72,2935.12 c -57.28,147.31 -200.45,251.73 -368.01,251.73 -167.24,0 -310.18,-104.02 -367.67,-250.88 -180.16,108.1 -298.95,293.19 -298.95,503.37 0,333.38 298.85,603.64 667.49,603.64 368.65,0 667.49,-270.26 667.49,-603.64 0,-210.73 -119.4,-396.24 -300.35,-504.22" /><path
         id="path623"
         style="fill:#f7b83e;fill-opacity:1;fill-rule:nonzero;stroke:none"
         d="m 3763.58,2835.69 c -136.24,0 -262.93,36.91 -368.54,100.28 57.49,146.86 200.43,250.88 367.67,250.88 167.56,0 310.73,-104.42 368.01,-251.73 -105.33,-62.85 -231.51,-99.43 -367.14,-99.43" /><path
         id="path625"
         style="fill:#f57a96;fill-opacity:1;fill-rule:nonzero;stroke:none"
         d="M 3869.91,4197.73 H 3835 v 112.56 c 0,34.27 -27.88,62.16 -62.15,62.16 -34.28,0 -62.16,-27.89 -62.16,-62.16 v -112.56 h -34.91 v 112.56 c 0,53.52 43.55,97.07 97.07,97.07 53.52,0 97.06,-43.55 97.06,-97.07 v -112.56" /><path
         id="path627"
         style="fill:#f7ab35;fill-opacity:1;fill-rule:nonzero;stroke:none"
         d="m 3827.52,4260.88 h -114.83 c -33.49,0 -60.63,-27.15 -60.63,-60.63 v -142.52 h 236.08 v 142.52 c 0,33.48 -27.13,60.63 -60.62,60.63" /><path
         id="path629"
         style="fill:#f79b96;fill-opacity:1;fill-rule:nonzero;stroke:none"
         d="m 4077.88,3503.65 c 0,-140.79 -141.62,-254.92 -316.33,-254.92 -174.7,0 -316.33,114.13 -316.33,254.92 0,140.79 141.63,254.92 316.33,254.92 174.71,0 316.33,-114.13 316.33,-254.92" /><path
         id="path631"
         style="fill:#353538;fill-opacity:1;fill-rule:nonzero;stroke:none"
         d="m 3751.3,3661.83 v -88.85 c 0,-6.59 5.35,-11.94 11.94,-11.94 6.6,0 11.94,5.35 11.94,11.94 v 88.85 c 0,6.59 -5.34,11.94 -11.94,11.94 -6.59,0 -11.94,-5.35 -11.94,-11.94" /><path
         id="path633"
         style="fill:#353538;fill-opacity:1;fill-rule:nonzero;stroke:none"
         d="m 3751.79,3573.95 v -20.32 c -0.03,-15.31 -12.41,-27.69 -27.72,-27.72 -15.31,0.03 -27.7,12.41 -27.73,27.72 v 20.32 c 0,6.59 -5.34,11.93 -11.94,11.93 -6.59,0 -11.93,-5.34 -11.93,-11.93 v -20.32 c 0,-28.5 23.1,-51.59 51.6,-51.6 28.5,0.01 51.59,23.1 51.6,51.6 v 20.32 c 0,6.59 -5.35,11.93 -11.94,11.93 -6.59,0 -11.94,-5.34 -11.94,-11.93" /><path
         id="path635"
         style="fill:#353538;fill-opacity:1;fill-rule:nonzero;stroke:none"
         d="m 3750.83,3573.95 v -20.32 c 0,-28.5 23.09,-51.59 51.59,-51.6 28.5,0.01 51.6,23.09 51.61,51.6 v 20.32 c 0,6.59 -5.35,11.93 -11.94,11.93 -6.59,0 -11.94,-5.34 -11.94,-11.93 v -20.32 c -0.03,-15.31 -12.42,-27.69 -27.73,-27.72 -15.31,0.03 -27.69,12.41 -27.72,27.72 v 20.32 c 0,6.59 -5.34,11.93 -11.94,11.93 -6.59,0 -11.93,-5.34 -11.93,-11.93" /><path
         id="path637"
         style="fill:#f57a96;fill-opacity:1;fill-rule:nonzero;stroke:none"
         d="m 3363.96,3539.46 c 0,-71.33 -57.82,-129.15 -129.15,-129.15 -71.32,0 -129.14,57.82 -129.14,129.15 0,71.32 57.82,129.14 129.14,129.14 71.33,0 129.15,-57.82 129.15,-129.14" /><path
         id="path639"
         style="fill:#f57a96;fill-opacity:1;fill-rule:nonzero;stroke:none"
         d="m 4400.02,3539.46 c 0,-71.33 -57.82,-129.15 -129.14,-129.15 -71.33,0 -129.15,57.82 -129.15,129.15 0,71.32 57.82,129.14 129.15,129.14 71.32,0 129.14,-57.82 129.14,-129.14" /><path
         id="path641"
         style="fill:#353538;fill-opacity:1;fill-rule:nonzero;stroke:none"
         d="m 3477.14,3733.42 c 0,-27.25 -22.09,-49.34 -49.33,-49.34 -27.25,0 -49.34,22.09 -49.34,49.34 0,27.24 22.09,49.33 49.34,49.33 27.24,0 49.33,-22.09 49.33,-49.33" /><path
         id="path643"
         style="fill:#353538;fill-opacity:1;fill-rule:nonzero;stroke:none"
         d="m 4156.24,3733.42 c 0,-27.25 -22.09,-49.34 -49.34,-49.34 -27.24,0 -49.33,22.09 -49.33,49.34 0,27.24 22.09,49.33 49.33,49.33 27.25,0 49.34,-22.09 49.34,-49.33" /><path
         id="path645"
         style="fill:#ffffff;fill-opacity:1;fill-rule:nonzero;stroke:none"
         d="m 2971.3,4594.39 c 0,-21.91 -16.46,-39.67 -36.76,-39.67 -20.3,0 -36.76,17.76 -36.76,39.67 0,21.9 16.46,39.65 36.76,39.65 20.3,0 36.76,-17.75 36.76,-39.65" /><path
         id="path647"
         style="fill:#ffffff;fill-opacity:1;fill-rule:nonzero;stroke:none"
         d="m 2893.91,4174.54 c 0,-16.56 -13.42,-29.99 -29.98,-29.99 -16.57,0 -29.99,13.43 -29.99,29.99 0,16.57 13.42,29.99 29.99,29.99 16.56,0 29.98,-13.42 29.98,-29.99" /><path
         id="path649"
         style="fill:#ffffff;fill-opacity:1;fill-rule:nonzero;stroke:none"
         d="m 3246.04,4460.88 c 0,-12.28 -9.97,-22.25 -22.25,-22.25 -12.29,0 -22.25,9.97 -22.25,22.25 0,12.3 9.96,22.26 22.25,22.26 12.28,0 22.25,-9.96 22.25,-22.26" /><path
         id="path651"
         style="fill:#ffffff;fill-opacity:1;fill-rule:nonzero;stroke:none"
         d="m 4335.3,4447.34 c 0,-18.7 -15.15,-33.86 -33.85,-33.86 -18.71,0 -33.86,15.16 -33.86,33.86 0,18.7 15.15,33.86 33.86,33.86 18.7,0 33.85,-15.16 33.85,-33.86" /><path
         id="path653"
         style="fill:#ffffff;fill-opacity:1;fill-rule:nonzero;stroke:none"
         d="m 4633.25,4615.66 c 0,-18.69 -15.15,-33.85 -33.86,-33.85 -18.7,0 -33.85,15.16 -33.85,33.85 0,18.71 15.15,33.86 33.85,33.86 18.71,0 33.86,-15.15 33.86,-33.86" /><path
         id="path655"
         style="fill:#ffffff;fill-opacity:1;fill-rule:nonzero;stroke:none"
         d="m 4675.82,4212.27 c 0,-17.1 -13.86,-30.96 -30.96,-30.96 -17.1,0 -30.95,13.86 -30.95,30.96 0,17.1 13.85,30.95 30.95,30.95 17.1,0 30.96,-13.85 30.96,-30.95" /><path
         id="path657"
         style="fill:#f8cc4b;fill-opacity:1;fill-rule:nonzero;stroke:none"
         d="m 3765.04,4080.22 h -87.07 v 120.98 c 0,18.67 15.14,33.8 33.81,33.8 h 19.45 c 18.67,0 33.81,-15.13 33.81,-33.8 v -120.98" /><path
         id="path659"
         style="fill:#ee2640;fill-opacity:1;fill-rule:nonzero;stroke:none"
         d="m 3893.86,3667.88 c 0,-37.8 -57.07,-68.45 -127.47,-68.45 -70.4,0 -127.47,30.65 -127.47,68.45 0,37.8 57.07,68.44 127.47,68.44 70.4,0 127.47,-30.64 127.47,-68.44" /><path
         id="path661"
         style="fill:#ffffff;fill-opacity:1;fill-rule:nonzero;stroke:none"
         d="m 3805.32,3691.76 c 0,-13.58 -25.11,-24.6 -56.11,-24.6 -30.99,0 -56.12,11.02 -56.12,24.6 0,13.59 25.13,24.6 56.12,24.6 31,0 56.11,-11.01 56.11,-24.6" /><path
         id="path663"
         style="fill:#ffffff;fill-opacity:1;fill-rule:nonzero;stroke:none"
         d="m 3480.49,4018.09 c 5.25,1.48 10.53,2.83 15.83,4.03 8.58,1.94 13.96,10.46 12.02,19.04 -1.94,8.57 -10.46,13.95 -19.04,12.01 -5.88,-1.33 -11.71,-2.82 -17.49,-4.46 -8.46,-2.39 -13.37,-11.19 -10.97,-19.65 2.39,-8.46 11.19,-13.37 19.65,-10.97" /><path
         id="path665"
         style="fill:#ffffff;fill-opacity:1;fill-rule:nonzero;stroke:none"
         d="m 3217.87,3826.22 0.2,0.26 c 2.36,3.04 25.48,32.46 62.78,67.88 37.27,35.43 88.75,76.79 147.2,104 7.97,3.71 11.41,13.18 7.7,21.15 -3.71,7.97 -13.18,11.42 -21.15,7.7 -65.09,-30.37 -120.22,-75.65 -159.4,-113.32 -39.14,-37.69 -62.26,-67.86 -62.61,-68.31 -5.34,-6.98 -4.02,-16.98 2.96,-22.32 6.98,-5.34 16.97,-4.02 22.32,2.96" /><path
         id="path667"
         style="fill:#faf9fc;fill-opacity:1;fill-rule:nonzero;stroke:none"
         d="m 1297.77,3922.54 c 0,-88.96 -72.11,-161.07 -161.07,-161.07 -88.95,0 -161.063,72.11 -161.063,161.07 0,88.96 72.113,161.07 161.063,161.07 88.96,0 161.07,-72.11 161.07,-161.07" /><path
         id="path669"
         style="fill:#f79b96;fill-opacity:1;fill-rule:nonzero;stroke:none"
         d="m 1232.09,3924.1 c 0,-53.54 -43.4,-96.95 -96.95,-96.95 -53.55,0 -96.96,43.41 -96.96,96.95 0,53.55 43.41,96.95 96.96,96.95 53.55,0 96.95,-43.4 96.95,-96.95" /><path
         id="path671"
         style="fill:#faf9fc;fill-opacity:1;fill-rule:nonzero;stroke:none"
         d="m 2130.68,3922.54 c 0,-88.96 72.11,-161.07 161.07,-161.07 88.96,0 161.07,72.11 161.07,161.07 0,88.96 -72.11,161.07 -161.07,161.07 -88.96,0 -161.07,-72.11 -161.07,-161.07" /><path
         id="path673"
         style="fill:#f79b96;fill-opacity:1;fill-rule:nonzero;stroke:none"
         d="m 2196.36,3924.1 c 0,-53.54 43.41,-96.95 96.96,-96.95 53.54,0 96.95,43.41 96.95,96.95 0,53.55 -43.41,96.95 -96.95,96.95 -53.55,0 -96.96,-43.4 -96.96,-96.95" /><path
         id="path675"
         style="fill:#faf9fc;fill-opacity:1;fill-rule:nonzero;stroke:none"
         d="m 2471.57,3401.61 c 0,-407.85 -330.63,-738.48 -738.48,-738.48 -407.85,0 -738.477,330.63 -738.477,738.48 0,407.84 330.627,738.48 738.477,738.48 407.85,0 738.48,-330.64 738.48,-738.48" /><path
         id="path677"
         style="fill:#ffffff;fill-opacity:1;fill-rule:nonzero;stroke:none"
         d="m 2412.19,3436.43 c 0,-333.38 -298.85,-603.64 -667.49,-603.64 -368.65,0 -667.49,270.26 -667.49,603.64 0,333.38 298.84,603.65 667.49,603.65 368.64,0 667.49,-270.27 667.49,-603.65" /><path
         id="path679"
         style="fill:#ee2640;fill-opacity:1;fill-rule:nonzero;stroke:none"
         d="M 2469.15,3344.49 C 1905.44,3061.7 1292.69,3217.21 998.707,3323.94 c 38.813,-371.33 352.773,-660.81 734.383,-660.81 388.61,0 706.88,300.23 736.06,681.36" /><path
         id="path681"
         style="fill:#f7ab35;fill-opacity:1;fill-rule:nonzero;stroke:none"
         d="m 1065.93,3085.08 c 33.51,-70.53 77.85,-134.87 130.91,-190.93 0,122.47 0,244.94 0,367.4 -47.32,12.71 -91.13,26.02 -130.91,39.13 0,-71.86 0,-143.73 0,-215.6" /><path
         id="path683"
         style="fill:#f7ab35;fill-opacity:1;fill-rule:nonzero;stroke:none"
         d="m 2257.73,3258.55 c 0,-125.46 0,-250.92 0,-376.39 52.22,52.78 96.42,113.45 130.91,179.98 0,81.67 0,163.35 0,245.03 -43.5,-18.58 -87.19,-34.7 -130.91,-48.62" /><path
         id="path685"
         style="fill:#f7ab35;fill-opacity:1;fill-rule:nonzero;stroke:none"
         d="m 1494.79,3201.77 c -45.15,5.95 -88.87,13.17 -130.91,21.27 0,-153.65 0,-307.29 0,-460.94 41.3,-23.9 85.05,-44.03 130.91,-59.66 0,166.44 0,332.89 0,499.33" /><path
         id="path687"
         style="fill:#f7ab35;fill-opacity:1;fill-rule:nonzero;stroke:none"
         d="m 2090.69,3215.7 c -43.89,-8.68 -87.58,-15.4 -130.9,-20.36 0,-165.51 0,-331.02 0,-496.53 45.75,14.75 89.54,33.81 130.9,56.77 0,153.38 0,306.75 0,460.12" /><path
         id="path689"
         style="fill:#f7ab35;fill-opacity:1;fill-rule:nonzero;stroke:none"
         d="m 1792.74,2665.7 c 0,172.9 0,345.8 0,518.7 -44.35,-0.83 -88.06,-0.05 -130.91,2.1 0,-173.32 0,-346.64 0,-519.96 23.45,-2.25 47.22,-3.41 71.26,-3.41 20.1,0 39.96,1 59.65,2.57" /><path
         id="path691"
         style="fill:#ee2640;fill-opacity:1;fill-rule:nonzero;stroke:none"
         d="m 1835.65,4197.73 h -34.91 v 112.56 c 0,34.27 -27.88,62.16 -62.16,62.16 -34.27,0 -62.16,-27.89 -62.16,-62.16 v -112.56 h -34.91 v 112.56 c 0,53.52 43.55,97.07 97.07,97.07 53.53,0 97.07,-43.55 97.07,-97.07 v -112.56" /><path
         id="path693"
         style="fill:#f7ab35;fill-opacity:1;fill-rule:nonzero;stroke:none"
         d="m 1793.25,4260.88 h -114.83 c -33.48,0 -60.63,-27.15 -60.63,-60.63 v -142.52 h 236.09 v 142.52 c 0,33.48 -27.14,60.63 -60.63,60.63" /><path
         id="path695"
         style="fill:#f79b96;fill-opacity:1;fill-rule:nonzero;stroke:none"
         d="m 2058.13,3503.65 c 0,-140.79 -141.63,-254.92 -316.33,-254.92 -174.71,0 -316.34,114.13 -316.34,254.92 0,140.79 141.63,254.92 316.34,254.92 174.7,0 316.33,-114.13 316.33,-254.92" /><path
         id="path697"
         style="fill:#353538;fill-opacity:1;fill-rule:nonzero;stroke:none"
         d="m 1831.76,3661.83 c 0,-25.64 -39.84,-46.43 -89,-46.43 -49.15,0 -89,20.79 -89,46.43 0,25.65 39.85,46.44 89,46.44 49.16,0 89,-20.79 89,-46.44" /><path
         id="path699"
         style="fill:#353538;fill-opacity:1;fill-rule:nonzero;stroke:none"
         d="m 1731.55,3661.83 v -88.85 c 0,-6.59 5.35,-11.94 11.94,-11.94 6.59,0 11.94,5.35 11.94,11.94 v 88.85 c 0,6.59 -5.35,11.94 -11.94,11.94 -6.59,0 -11.94,-5.35 -11.94,-11.94" /><path
         id="path701"
         style="fill:#353538;fill-opacity:1;fill-rule:nonzero;stroke:none"
         d="m 1732.04,3573.95 v -20.32 c -0.03,-15.31 -12.42,-27.69 -27.73,-27.72 -15.31,0.03 -27.7,12.41 -27.72,27.72 v 20.32 c 0,6.59 -5.35,11.93 -11.94,11.93 -6.59,0 -11.94,-5.34 -11.94,-11.93 v -20.32 c 0.01,-28.5 23.1,-51.59 51.6,-51.6 28.5,0.01 51.6,23.1 51.6,51.6 v 20.32 c 0,6.59 -5.34,11.93 -11.94,11.93 -6.59,0 -11.93,-5.34 -11.93,-11.93" /><path
         id="path703"
         style="fill:#353538;fill-opacity:1;fill-rule:nonzero;stroke:none"
         d="m 1731.07,3573.95 v -20.32 c 0.01,-28.5 23.1,-51.59 51.6,-51.6 28.5,0.01 51.59,23.1 51.6,51.6 v 20.32 c 0,6.59 -5.35,11.93 -11.94,11.93 -6.59,0 -11.94,-5.34 -11.94,-11.93 v -20.32 c -0.03,-15.31 -12.41,-27.69 -27.72,-27.72 -15.31,0.03 -27.7,12.41 -27.72,27.72 v 20.32 c 0,6.59 -5.35,11.93 -11.94,11.93 -6.6,0 -11.94,-5.34 -11.94,-11.93" /><path
         id="path705"
         style="fill:#f57a96;fill-opacity:1;fill-rule:nonzero;stroke:none"
         d="m 1344.2,3539.46 c 0,-71.33 -57.81,-129.15 -129.14,-129.15 -71.32,0 -129.14,57.82 -129.14,129.15 0,71.32 57.82,129.14 129.14,129.14 71.33,0 129.14,-57.82 129.14,-129.14" /><path
         id="path707"
         style="fill:#f57a96;fill-opacity:1;fill-rule:nonzero;stroke:none"
         d="m 2380.26,3539.46 c 0,-71.33 -57.81,-129.15 -129.14,-129.15 -71.33,0 -129.14,57.82 -129.14,129.15 0,71.32 57.81,129.14 129.14,129.14 71.33,0 129.14,-57.82 129.14,-129.14" /><path
         id="path709"
         style="fill:#353538;fill-opacity:1;fill-rule:nonzero;stroke:none"
         d="m 1457.39,3733.42 c 0,-27.25 -22.09,-49.34 -49.34,-49.34 -27.24,0 -49.33,22.09 -49.33,49.34 0,27.24 22.09,49.33 49.33,49.33 27.25,0 49.34,-22.09 49.34,-49.33" /><path
         id="path711"
         style="fill:#353538;fill-opacity:1;fill-rule:nonzero;stroke:none"
         d="m 2136.48,3733.42 c 0,-27.25 -22.08,-49.34 -49.33,-49.34 -27.25,0 -49.34,22.09 -49.34,49.34 0,27.24 22.09,49.33 49.34,49.33 27.25,0 49.33,-22.09 49.33,-49.33" /><path
         id="path713"
         style="fill:#ffffff;fill-opacity:1;fill-rule:nonzero;stroke:none"
         d="m 1770.82,3680.21 c 0,-9.21 -17.54,-16.68 -39.18,-16.68 -21.64,0 -39.18,7.47 -39.18,16.68 0,9.22 17.54,16.69 39.18,16.69 21.64,0 39.18,-7.47 39.18,-16.69" /><path
         id="path715"
         style="fill:#f8cc4b;fill-opacity:1;fill-rule:nonzero;stroke:none"
         d="m 1725.35,4078.77 h -87.06 v 120.98 c 0,18.66 15.13,33.8 33.8,33.8 h 19.45 c 18.67,0 33.81,-15.14 33.81,-33.8 v -120.98" /><path
         id="path717"
         style="fill:#ffffff;fill-opacity:1;fill-rule:nonzero;stroke:none"
         d="m 1452.81,4011.41 c 5.21,1.59 10.46,3.04 15.73,4.33 8.54,2.1 13.76,10.72 11.67,19.26 -2.1,8.53 -10.72,13.75 -19.26,11.66 -5.87,-1.44 -11.68,-3.05 -17.42,-4.8 -8.41,-2.56 -13.15,-11.46 -10.59,-19.86 2.57,-8.41 11.46,-13.15 19.87,-10.59" /><path
         id="path719"
         style="fill:#ffffff;fill-opacity:1;fill-rule:nonzero;stroke:none"
         d="m 1193.87,3814.59 0.19,0.26 c 2.3,3.09 24.87,32.94 61.48,69.06 36.59,36.14 87.28,78.46 145.19,106.78 7.9,3.86 11.17,13.4 7.3,21.29 -3.86,7.9 -13.4,11.17 -21.29,7.3 -64.5,-31.61 -118.76,-77.92 -157.21,-116.33 -38.42,-38.43 -60.96,-69.03 -61.31,-69.49 -5.21,-7.08 -3.69,-17.05 3.39,-22.26 7.08,-5.21 17.04,-3.69 22.26,3.39" /><path
         id="path721"
         style="fill:#3b4954;fill-opacity:1;fill-rule:nonzero;stroke:none"
         d="m 4510.26,1225.01 c 0,-407.85 -330.63,-738.479 -738.47,-738.479 -407.86,0 -738.48,330.629 -738.48,738.479 0,407.85 330.62,738.48 738.48,738.48 407.84,0 738.47,-330.63 738.47,-738.48" /><path
         id="path723"
         style="fill:#ffffff;fill-opacity:1;fill-rule:nonzero;stroke:none"
         d="m 3508.38,1843.14 c 5.29,1.31 10.6,2.48 15.95,3.5 8.63,1.64 14.3,9.98 12.65,18.61 -1.64,8.64 -9.97,14.31 -18.61,12.66 -5.93,-1.13 -11.81,-2.42 -17.64,-3.86 -8.54,-2.12 -13.74,-10.75 -11.63,-19.28 2.11,-8.54 10.74,-13.74 19.28,-11.63" /><path
         id="path725"
         style="fill:#ffffff;fill-opacity:1;fill-rule:nonzero;stroke:none"
         d="m 3239.34,1660.36 0.21,0.24 c 2.46,2.97 26.58,31.58 65.06,65.7 38.46,34.14 91.33,73.71 150.67,98.91 8.09,3.45 11.86,12.79 8.42,20.88 -3.44,8.09 -12.79,11.86 -20.88,8.42 -66.09,-28.14 -122.74,-71.5 -163.17,-107.82 -40.41,-36.33 -64.54,-65.69 -64.91,-66.13 -5.58,-6.79 -4.6,-16.82 2.2,-22.4 6.79,-5.58 16.82,-4.6 22.4,2.2" /><path
         id="path727"
         style="fill:#ffffff;fill-opacity:1;fill-rule:nonzero;stroke:none"
         d="m 4107.31,1683.54 c -159.76,0 -294.06,-108.86 -332.86,-256.44 -38.79,147.58 -173.09,256.44 -332.85,256.44 -168.14,0 -308.04,-120.6 -338.11,-280 h -48.32 c -14.2,-57.19 -21.86,-116.96 -21.86,-178.53 0,-407.85 330.63,-738.479 738.48,-738.479 407.84,0 738.47,330.629 738.47,738.479 0,61.57 -7.65,121.34 -21.86,178.53 h -42.97 c -30.08,159.4 -169.97,280 -338.12,280" /><path
         id="path729"
         style="fill:#ee2640;fill-opacity:1;fill-rule:nonzero;stroke:none"
         d="m 3874.35,2021.13 h -34.92 v 112.56 c 0,34.27 -27.88,62.16 -62.16,62.16 -34.27,0 -62.15,-27.89 -62.15,-62.16 v -112.56 h -34.91 v 112.56 c 0,53.52 43.55,97.07 97.06,97.07 53.53,0 97.08,-43.55 97.08,-97.07 v -112.56" /><path
         id="path731"
         style="fill:#f7ab35;fill-opacity:1;fill-rule:nonzero;stroke:none"
         d="m 3831.94,2084.28 h -114.83 c -33.48,0 -60.63,-27.15 -60.63,-60.64 v -142.52 h 236.1 v 142.52 c 0,33.49 -27.15,60.64 -60.64,60.64" /><path
         id="path733"
         style="fill:#f57a96;fill-opacity:1;fill-rule:nonzero;stroke:none"
         d="m 3382.9,1362.86 c 0,-71.33 -57.82,-129.14 -129.15,-129.14 -71.32,0 -129.14,57.81 -129.14,129.14 0,71.33 57.82,129.14 129.14,129.14 71.33,0 129.15,-57.81 129.15,-129.14" /><path
         id="path735"
         style="fill:#f57a96;fill-opacity:1;fill-rule:nonzero;stroke:none"
         d="m 4418.96,1362.86 c 0,-71.33 -57.82,-129.14 -129.15,-129.14 -71.32,0 -129.14,57.81 -129.14,129.14 0,71.33 57.82,129.14 129.14,129.14 71.33,0 129.15,-57.81 129.15,-129.14" /><path
         id="path737"
         style="fill:#353538;fill-opacity:1;fill-rule:nonzero;stroke:none"
         d="m 3496.08,1529.74 c 0,-27.25 -22.09,-49.34 -49.33,-49.34 -27.25,0 -49.34,22.09 -49.34,49.34 0,27.24 22.09,49.33 49.34,49.33 27.24,0 49.33,-22.09 49.33,-49.33" /><path
         id="path739"
         style="fill:#353538;fill-opacity:1;fill-rule:nonzero;stroke:none"
         d="m 4175.19,1529.74 c 0,-27.25 -22.09,-49.34 -49.34,-49.34 -27.26,0 -49.35,22.09 -49.35,49.34 0,27.24 22.09,49.33 49.35,49.33 27.25,0 49.34,-22.09 49.34,-49.33" /><path
         id="path741"
         style="fill:#f8cc4b;fill-opacity:1;fill-rule:nonzero;stroke:none"
         d="m 3764.04,1902.18 h -87.06 v 120.96 c 0,18.68 15.14,33.81 33.81,33.81 h 19.45 c 18.67,0 33.8,-15.13 33.8,-33.81 v -120.96" /><path
         id="path743"
         style="fill:#f7ab35;fill-opacity:1;fill-rule:nonzero;stroke:none"
         d="m 3912.05,1486.2 c 0,-43.81 -55.43,-79.33 -123.82,-79.33 -68.39,0 -123.83,35.52 -123.83,79.33 0,43.81 55.44,79.33 123.83,79.33 68.39,0 123.82,-35.52 123.82,-79.33" /><path
         id="path745"
         style="fill:#e17237;fill-opacity:1;fill-rule:nonzero;stroke:none"
         d="m 3664.56,1484.27 c 1.62,-42.91 56.3,-77.4 123.67,-77.4 67.37,0 122.05,34.49 123.67,77.4 h -247.34" /><path
         id="path747"
         style="fill:#3dbc89;fill-opacity:1;fill-rule:nonzero;stroke:none"
         d="M 4507.01,1167.89 C 3943.3,885.109 3330.55,1040.61 3036.56,1147.34 c 38.82,-371.328 352.78,-660.809 734.39,-660.809 388.61,0 706.87,300.239 736.06,681.359" /><path
         id="path749"
         style="fill:#ee2640;fill-opacity:1;fill-rule:nonzero;stroke:none"
         d="m 3036.56,1147.34 c 1.93,-18.38 4.71,-36.51 7.96,-54.47 202.71,-97.69 453.47,-155.491 724.97,-155.491 272.89,0 524.85,58.371 728.1,156.971 4.3,24.14 7.51,48.66 9.42,73.54 C 3943.3,885.109 3330.55,1040.61 3036.56,1147.34" /></g></g></svg>
